<mxfile host="65bd71144e">
    <diagram name="WorkspaceDB Class Diagram" id="0">
        <mxGraphModel dx="2259" dy="603" grid="1" gridSize="10" guides="1" tooltips="1" connect="1" arrows="1" fold="1" page="1" pageScale="1" pageWidth="827" pageHeight="1169" math="0" shadow="0">
            <root>
                <mxCell id="0"/>
                <mxCell id="1" parent="0"/>
                <mxCell id="53" style="edgeStyle=none;html=1;exitX=0;exitY=0.5;exitDx=0;exitDy=0;entryX=1;entryY=0.5;entryDx=0;entryDy=0;" edge="1" parent="1" source="2" target="51">
                    <mxGeometry relative="1" as="geometry"/>
                </mxCell>
                <mxCell id="2" value="&lt;&lt;interface&gt;&gt;&#10;WorkspaceDBPort" style="shape=rectangle;whiteSpace=wrap;html=1;rounded=1;strokeColor=#000000;fillColor=#e6e6e6;align=center;fontSize=12;fontColor=#000000;verticalAlign=top;" parent="1" vertex="1">
                    <mxGeometry x="-55" y="220" width="190" height="210" as="geometry"/>
                </mxCell>
                <mxCell id="3" value="+ Init()&#10;+ AddWorkspace()&#10;+ AddFileMetadata()&#10;+ StoreVector()&#10;+ AddHistoryEvent()&#10;+ GetWorkspaceID()&#10;+ Close()" style="text;whiteSpace=wrap;html=1;align=left;fontSize=12;fontColor=#000000;" parent="2" vertex="1">
                    <mxGeometry x="11.875" y="75" width="166.25" height="120" as="geometry"/>
                </mxCell>
                <mxCell id="39" style="edgeStyle=none;html=1;exitX=0.5;exitY=0;exitDx=0;exitDy=0;entryX=0.5;entryY=1;entryDx=0;entryDy=0;strokeColor=#FFFFFF;" parent="1" source="4" target="2" edge="1">
                    <mxGeometry relative="1" as="geometry"/>
                </mxCell>
                <mxCell id="40" value="implements" style="edgeLabel;html=1;align=center;verticalAlign=middle;resizable=0;points=[];" parent="39" vertex="1" connectable="0">
                    <mxGeometry x="-0.335" y="-1" relative="1" as="geometry">
                        <mxPoint as="offset"/>
                    </mxGeometry>
                </mxCell>
                <mxCell id="4" value="SQLiteWorkspaceDB" style="shape=rectangle;whiteSpace=wrap;html=1;rounded=1;strokeColor=#000000;fillColor=#cce6ff;align=center;fontSize=12;fontColor=#000000;verticalAlign=top;" parent="1" vertex="1">
                    <mxGeometry x="-60" y="500" width="200" height="220" as="geometry"/>
                </mxCell>
                <mxCell id="19" style="edgeStyle=none;html=1;" parent="4" source="5" target="4" edge="1">
                    <mxGeometry relative="1" as="geometry"/>
                </mxCell>
                <mxCell id="5" value="- db: *sql.DB&#10;+ Init()&#10;+ AddWorkspace()&#10;+ AddFileMetadata()&#10;+ StoreVector()&#10;+ AddHistoryEvent()&#10;+ GetWorkspaceID()&#10;+ Close()" style="text;whiteSpace=wrap;html=1;align=left;fontSize=12;fontColor=#000000;" parent="4" vertex="1">
                    <mxGeometry x="12.5" y="78.57142857142858" width="175" height="125.71428571428574" as="geometry"/>
                </mxCell>
                <mxCell id="6" value="&lt;&lt;interface&gt;&gt;&#10;LLMProvider" style="shape=rectangle;whiteSpace=wrap;html=1;rounded=1;strokeColor=#000000;fillColor=#e6e6e6;align=center;fontSize=12;fontColor=#000000;verticalAlign=top;" parent="1" vertex="1">
                    <mxGeometry x="-580" y="465" width="160" height="120" as="geometry"/>
                </mxCell>
                <mxCell id="7" value="+ GenerateConfigMap(ctx DirectoryContext)" style="text;whiteSpace=wrap;html=1;align=left;fontSize=12;fontColor=#000000;" parent="6" vertex="1">
                    <mxGeometry x="10" y="48" width="140" height="48" as="geometry"/>
                </mxCell>
                <mxCell id="54" style="edgeStyle=none;html=1;exitX=1;exitY=0.5;exitDx=0;exitDy=0;entryX=0;entryY=0.5;entryDx=0;entryDy=0;" edge="1" parent="1" source="8" target="51">
                    <mxGeometry relative="1" as="geometry"/>
                </mxCell>
                <mxCell id="8" value="OllamaProvider" style="shape=rectangle;whiteSpace=wrap;html=1;rounded=1;strokeColor=#000000;fillColor=#cce6ff;align=center;fontSize=12;fontColor=#000000;verticalAlign=top;" parent="1" vertex="1">
                    <mxGeometry x="-580" y="265" width="160" height="120" as="geometry"/>
                </mxCell>
                <mxCell id="9" value="- client: *ollama.LLM&#10;+ GenerateConfigMap(ctx DirectoryContext)" style="text;whiteSpace=wrap;html=1;align=left;fontSize=12;fontColor=#000000;" parent="8" vertex="1">
                    <mxGeometry x="10" y="48" width="140" height="48" as="geometry"/>
                </mxCell>
                <mxCell id="42" style="edgeStyle=none;html=1;exitX=0.5;exitY=1;exitDx=0;exitDy=0;entryX=0.5;entryY=0;entryDx=0;entryDy=0;strokeColor=#FFFFFF;" parent="1" source="10" target="13" edge="1">
                    <mxGeometry relative="1" as="geometry"/>
                </mxCell>
                <mxCell id="43" value="Contains" style="edgeLabel;html=1;align=center;verticalAlign=middle;resizable=0;points=[];" parent="42" vertex="1" connectable="0">
                    <mxGeometry x="-0.4017" y="-3" relative="1" as="geometry">
                        <mxPoint as="offset"/>
                    </mxGeometry>
                </mxCell>
                <mxCell id="49" style="edgeStyle=none;html=1;exitX=0;exitY=0.5;exitDx=0;exitDy=0;entryX=1;entryY=0.5;entryDx=0;entryDy=0;strokeColor=#FFFFFF;" parent="1" source="10" target="4" edge="1">
                    <mxGeometry relative="1" as="geometry"/>
                </mxCell>
                <mxCell id="50" value="Contains" style="edgeLabel;html=1;align=center;verticalAlign=middle;resizable=0;points=[];" parent="49" vertex="1" connectable="0">
                    <mxGeometry x="0.5939" y="-1" relative="1" as="geometry">
                        <mxPoint x="41" as="offset"/>
                    </mxGeometry>
                </mxCell>
                <mxCell id="10" value="DesktopFS" style="shape=rectangle;whiteSpace=wrap;html=1;rounded=1;strokeColor=#000000;fillColor=#ffe6f2;align=center;fontSize=12;fontColor=#000000;verticalAlign=top;" parent="1" vertex="1">
                    <mxGeometry x="280" y="500" width="200" height="220" as="geometry"/>
                </mxCell>
                <mxCell id="11" value="- HomeDir: string&#10;- Cwd: string&#10;- DirectoryTree: DirectoryTree&#10;+ AddMetadataToTree()&#10;+ AddRelationships()&#10;+ ApplyLLMRecommendations()" style="text;whiteSpace=wrap;html=1;align=left;fontSize=12;fontColor=#000000;" parent="10" vertex="1">
                    <mxGeometry x="12.5" y="78.57142857142856" width="175" height="125.7142857142857" as="geometry"/>
                </mxCell>
                <mxCell id="46" style="edgeStyle=none;html=1;exitX=0.5;exitY=1;exitDx=0;exitDy=0;entryX=0.5;entryY=0;entryDx=0;entryDy=0;strokeColor=#FFFFFF;" parent="1" source="13" target="21" edge="1">
                    <mxGeometry relative="1" as="geometry"/>
                </mxCell>
                <mxCell id="47" value="Contains" style="edgeLabel;html=1;align=center;verticalAlign=middle;resizable=0;points=[];" parent="46" vertex="1" connectable="0">
                    <mxGeometry x="-0.496" y="2" relative="1" as="geometry">
                        <mxPoint x="-2" y="12" as="offset"/>
                    </mxGeometry>
                </mxCell>
                <mxCell id="13" value="DirectoryTree" style="shape=rectangle;whiteSpace=wrap;html=1;rounded=1;strokeColor=#000000;fillColor=#ccffcc;align=center;fontSize=12;fontColor=#000000;verticalAlign=top;" parent="1" vertex="1">
                    <mxGeometry x="300" y="830" width="160" height="120" as="geometry"/>
                </mxCell>
                <mxCell id="14" value="- Root: DirectoryNode&#10;+ Flatten()&#10;+ AddDirectory()" style="text;whiteSpace=wrap;html=1;align=left;fontSize=12;fontColor=#000000;" parent="13" vertex="1">
                    <mxGeometry x="10" y="48" width="140" height="48" as="geometry"/>
                </mxCell>
                <mxCell id="16" style="edgeStyle=orthogonalEdgeStyle;rounded=0;orthogonalLoop=1;jettySize=auto;html=1;endArrow=block;endFill=1;dashed=1;strokeColor=#FFFFFF;" parent="1" source="8" target="6" edge="1">
                    <mxGeometry relative="1" as="geometry"/>
                </mxCell>
                <mxCell id="34" style="edgeStyle=none;html=1;exitX=0.5;exitY=1;exitDx=0;exitDy=0;entryX=0.5;entryY=0;entryDx=0;entryDy=0;strokeColor=#FFFFFF;" parent="1" source="21" target="32" edge="1">
                    <mxGeometry relative="1" as="geometry">
                        <Array as="points">
                            <mxPoint x="380" y="1180"/>
                            <mxPoint x="280" y="1180"/>
                        </Array>
                    </mxGeometry>
                </mxCell>
                <mxCell id="35" style="edgeStyle=none;html=1;exitX=0.5;exitY=1;exitDx=0;exitDy=0;entryX=0.5;entryY=0;entryDx=0;entryDy=0;strokeColor=#FFFFFF;" parent="1" source="21" target="30" edge="1">
                    <mxGeometry relative="1" as="geometry">
                        <Array as="points">
                            <mxPoint x="380" y="1180"/>
                            <mxPoint x="490" y="1180"/>
                        </Array>
                    </mxGeometry>
                </mxCell>
                <mxCell id="36" value="Contains" style="edgeLabel;html=1;align=center;verticalAlign=middle;resizable=0;points=[];" parent="35" vertex="1" connectable="0">
                    <mxGeometry x="-0.6529" y="-2" relative="1" as="geometry">
                        <mxPoint as="offset"/>
                    </mxGeometry>
                </mxCell>
                <mxCell id="21" value="DirectoryNode" style="shape=rectangle;whiteSpace=wrap;html=1;rounded=1;strokeColor=#000000;fillColor=#cce6ff;align=center;fontSize=12;fontColor=#000000;verticalAlign=top;" parent="1" vertex="1">
                    <mxGeometry x="300" y="1020" width="160" height="120" as="geometry"/>
                </mxCell>
                <mxCell id="45" style="edgeStyle=none;html=1;strokeColor=#FFFFFF;" parent="21" source="22" target="21" edge="1">
                    <mxGeometry relative="1" as="geometry"/>
                </mxCell>
                <mxCell id="22" value="- Path&lt;br&gt;- Type&lt;br&gt;- Metadata" style="text;whiteSpace=wrap;html=1;align=left;fontSize=12;fontColor=#000000;" parent="21" vertex="1">
                    <mxGeometry x="10" y="48" width="140" height="48" as="geometry"/>
                </mxCell>
                <mxCell id="30" value="Metadata" style="shape=rectangle;whiteSpace=wrap;html=1;rounded=1;strokeColor=#000000;fillColor=#cce6ff;align=center;fontSize=12;fontColor=#000000;verticalAlign=top;" parent="1" vertex="1">
                    <mxGeometry x="410" y="1200" width="160" height="80" as="geometry"/>
                </mxCell>
                <mxCell id="31" value="- Size&lt;br&gt;- ModifiedAt" style="text;whiteSpace=wrap;html=1;align=left;fontSize=12;fontColor=#000000;" parent="30" vertex="1">
                    <mxGeometry x="10" y="32" width="140" height="32" as="geometry"/>
                </mxCell>
                <mxCell id="32" value="FileNode" style="shape=rectangle;whiteSpace=wrap;html=1;rounded=1;strokeColor=#000000;fillColor=#cce6ff;align=center;fontSize=12;fontColor=#000000;verticalAlign=top;" parent="1" vertex="1">
                    <mxGeometry x="200" y="1200" width="160" height="90" as="geometry"/>
                </mxCell>
                <mxCell id="33" value="- Path&lt;br&gt;- Metadata" style="text;whiteSpace=wrap;html=1;align=left;fontSize=12;fontColor=#000000;" parent="32" vertex="1">
                    <mxGeometry x="10" y="36" width="140" height="36" as="geometry"/>
                </mxCell>
                <mxCell id="51" value="MessageBus" style="shape=rectangle;whiteSpace=wrap;html=1;rounded=1;strokeColor=#000000;fillColor=#cce6ff;align=center;fontSize=12;fontColor=#000000;verticalAlign=top;" vertex="1" parent="1">
                    <mxGeometry x="-330" y="265" width="160" height="120" as="geometry"/>
                </mxCell>
                <mxCell id="52" value="- client: *ollama.LLM&#10;+ GenerateConfigMap(ctx DirectoryContext)" style="text;whiteSpace=wrap;html=1;align=left;fontSize=12;fontColor=#000000;" vertex="1" parent="51">
                    <mxGeometry x="10" y="48" width="140" height="48" as="geometry"/>
                </mxCell>
            </root>
        </mxGraphModel>
    </diagram>
</mxfile>